<?xml version="1.0" encoding="UTF-8"?>
<!DOCTYPE svg PUBLIC "-//W3C//DTD SVG 1.1//EN" "http://www.w3.org/Graphics/SVG/1.1/DTD/svg11.dtd">
<!-- Creator: CorelDRAW -->
<svg xmlns="http://www.w3.org/2000/svg" xml:space="preserve" width="2048px" height="2048px" style="shape-rendering:geometricPrecision; text-rendering:geometricPrecision; image-rendering:optimizeQuality; fill-rule:evenodd; clip-rule:evenodd"
viewBox="0 0 2048 2048"
 xmlns:xlink="http://www.w3.org/1999/xlink">
 <defs>
  <style type="text/css">
   <![CDATA[
    .fil2 {fill:none}
    .fil10 {fill:black}
    .fil5 {fill:#006064}
    .fil14 {fill:#073E57}
    .fil6 {fill:#212121}
    .fil13 {fill:#33691E}
    .fil4 {fill:#37474F}
    .fil9 {fill:#424242}
    .fil7 {fill:#43A047}
    .fil12 {fill:#4FC3F7}
    .fil15 {fill:#558B2F}
    .fil8 {fill:#55ABDB}
    .fil11 {fill:#757575}
    .fil1 {fill:#E64A19}
    .fil0 {fill:#FF7043}
    .fil3 {fill:#FFFFFE;fill-rule:nonzero}
   ]]>
  </style>
   <clipPath id="id0">
    <path d="M1024 0c565.541,0 1024,458.459 1024,1024 0,565.541 -458.459,1024 -1024,1024 -565.541,0 -1024,-458.459 -1024,-1024 0,-565.541 458.459,-1024 1024,-1024z"/>
   </clipPath>
 </defs>
 <g id="Layer_x0020_1">
  <metadata id="CorelCorpID_0Corel-Layer"/>
  <path class="fil0" d="M1024 0c565.541,0 1024,458.459 1024,1024 0,565.541 -458.459,1024 -1024,1024 -565.541,0 -1024,-458.459 -1024,-1024 0,-565.541 458.459,-1024 1024,-1024z"/>
  <g style="clip-path:url(#id0)">
   <g id="_308717920">
    <g>
     <polygon id="_3030801281" class="fil1" points="1542.74,482.109 2678.62,1617.99 2679.45,1619.09 2680.16,1620.26 2680.76,1621.51 2681.24,1622.81 2681.6,1624.18 2681.81,1625.59 2681.89,1627.04 2681.89,2108.73 2681.81,2110.18 2681.6,2111.59 2681.24,2112.95 2680.76,2114.26 2680.16,2115.51 2679.44,2116.68 2678.62,2117.78 2677.7,2118.79 2676.69,2119.71 2675.59,2120.54 2674.41,2121.25 2673.17,2121.85 2671.86,2122.34 2670.5,2122.69 2669.09,2122.91 2667.64,2122.98 2371.02,2122.98 1235.14,987.098 1531.76,987.098 1533.21,987.023 1534.62,986.806 1535.98,986.454 1537.29,985.972 1538.53,985.37 1539.71,984.654 1540.8,983.831 1541.82,982.909 1542.74,981.896 1543.56,980.798 1544.28,979.624 1544.88,978.379 1545.36,977.072 1545.72,975.711 1545.93,974.3 1546.01,972.851 1546.01,491.154 1545.93,489.703 1545.72,488.294 1545.36,486.932 1544.88,485.626 1544.28,484.381 1543.56,483.206 "/>
     <polygon id="_303080272" class="fil1" points="1203.42,987.098 2339.3,2122.98 2042.68,2122.98 2041.23,2122.91 2039.82,2122.69 2038.46,2122.34 2037.15,2121.86 2035.91,2121.25 2034.73,2120.54 2033.63,2119.72 2032.62,2118.8 896.738,982.913 897.752,983.834 898.85,984.656 900.024,985.372 901.269,985.973 902.575,986.454 903.937,986.807 905.348,987.023 906.797,987.098 "/>
     <polygon id="_303080224" class="fil1" points="1235.14,987.098 2371.02,2122.98 2371.02,2180 1235.14,1044.12 "/>
     <polygon id="_303080248" class="fil1" points="1584,1077.23 2719.88,2213.11 2719.88,2244.83 1584,1108.94 "/>
     <polygon id="_303080344" class="fil1" points="1317.9,1049.7 2453.78,2185.58 2455.01,2186.93 2456.1,2188.4 2457.06,2189.96 2457.86,2191.62 2458.5,2193.37 2458.97,2195.18 2459.26,2197.06 2459.36,2199 2459.36,2213.11 1323.48,1077.23 1323.48,1063.12 1323.38,1061.18 1323.09,1059.3 1322.62,1057.48 1321.98,1055.74 1321.18,1054.08 1320.22,1052.51 1319.13,1051.05 "/>
     <polygon id="_303081160" class="fil1" points="961.666,1066.74 2097.55,2202.62 2102.77,2207.8 2107.85,2213.11 971.972,1077.23 966.884,1071.92 "/>
     <polygon id="_303081088" class="fil1" points="1121.16,1108.94 2257.04,2244.83 2133.63,2244.83 997.749,1108.94 "/>
     <polygon id="_303081376" class="fil1" points="997.749,1108.94 2133.63,2244.83 2136.74,2249.33 2139.76,2253.89 2142.7,2258.52 2145.55,2263.2 2148.32,2267.94 2151.01,2272.73 2153.6,2277.58 2156.11,2282.48 2158.53,2287.44 2160.85,2292.44 2163.09,2297.5 2165.23,2302.6 2167.28,2307.76 2169.23,2312.96 2171.09,2318.21 2172.85,2323.5 2174.51,2328.84 2176.07,2334.22 2177.53,2339.64 2178.89,2345.11 2180.15,2350.61 2181.3,2356.15 2182.35,2361.73 2183.3,2367.35 2184.13,2373 2184.86,2378.68 2185.48,2384.4 2185.99,2390.15 2186.39,2395.94 2186.67,2401.75 2186.84,2407.6 2186.9,2413.47 2186.52,2428.57 2185.38,2443.47 2183.52,2458.16 2180.94,2472.62 2177.66,2486.82 2173.7,2500.75 2169.09,2514.38 2163.83,2527.71 2157.96,2540.71 2151.48,2553.37 2144.41,2565.66 2136.77,2577.57 2128.59,2589.08 2119.88,2600.16 2110.65,2610.81 2100.93,2621.01 2090.74,2630.73 2080.09,2639.95 2069,2648.67 2057.49,2656.85 2045.59,2664.48 2033.29,2671.55 2020.64,2678.03 2007.64,2683.91 1994.31,2689.17 1980.67,2693.78 1966.74,2697.73 1952.54,2701.01 1938.09,2703.59 1923.4,2705.46 1908.49,2706.59 1893.39,2706.98 1878.29,2706.59 1863.38,2705.46 1848.69,2703.59 1834.24,2701.01 1820.04,2697.73 1806.11,2693.78 1792.47,2689.17 1779.14,2683.91 1766.14,2678.03 1753.49,2671.55 1741.19,2664.48 1729.29,2656.85 1717.78,2648.67 1706.69,2639.95 570.809,1504.07 581.898,1512.78 593.405,1520.97 605.313,1528.6 617.605,1535.67 630.26,1542.15 643.262,1548.03 656.591,1553.28 670.228,1557.9 684.156,1561.85 698.357,1565.13 712.81,1567.71 727.499,1569.58 742.405,1570.71 757.509,1571.09 772.613,1570.71 787.518,1569.58 802.208,1567.71 816.662,1565.13 830.861,1561.85 844.79,1557.9 858.428,1553.28 871.757,1548.03 884.757,1542.15 897.413,1535.67 909.705,1528.6 921.614,1520.97 933.121,1512.78 944.208,1504.07 954.858,1494.84 965.052,1485.13 974.77,1474.93 983.996,1464.28 992.709,1453.19 1000.89,1441.69 1008.53,1429.78 1015.59,1417.49 1022.08,1404.83 1027.95,1391.83 1033.21,1378.5 1037.82,1364.86 1041.78,1350.94 1045.06,1336.73 1047.64,1322.28 1049.5,1307.59 1050.64,1292.69 1051.02,1277.58 1050.96,1271.71 1050.79,1265.87 1050.5,1260.06 1050.11,1254.27 1049.6,1248.52 1048.98,1242.8 1048.25,1237.12 1047.41,1231.46 1046.47,1225.85 1045.42,1220.27 1044.27,1214.73 1043.01,1209.22 1041.65,1203.76 1040.19,1198.34 1038.63,1192.96 1036.97,1187.62 1035.21,1182.33 1033.35,1177.08 1031.4,1171.88 1029.35,1166.72 1027.21,1161.62 1024.97,1156.56 1022.65,1151.55 1020.23,1146.6 1017.72,1141.7 1015.13,1136.85 1012.44,1132.05 1009.67,1127.32 1006.82,1122.64 1003.88,1118.01 1000.85,1113.45 "/>
     <polygon id="_303080968" class="fil1" points="1323.48,1108.94 2459.36,2244.83 2459.36,2258.94 2459.26,2260.88 2458.97,2262.76 2458.5,2264.58 2457.86,2266.32 2457.06,2267.98 2456.1,2269.54 2455.01,2271.01 2453.78,2272.36 2452.43,2273.59 2450.96,2274.68 2449.4,2275.64 2447.74,2276.44 2446,2277.08 2444.18,2277.55 2442.3,2277.84 2440.36,2277.94 2276.04,2277.94 2274.11,2277.84 2272.22,2277.55 2270.41,2277.08 2268.66,2276.44 2267,2275.64 2265.44,2274.68 2263.98,2273.59 2262.62,2272.36 1126.74,1136.48 1128.09,1137.7 1129.56,1138.8 1131.12,1139.76 1132.78,1140.56 1134.53,1141.2 1136.34,1141.67 1138.22,1141.96 1140.16,1142.06 1304.48,1142.06 1306.42,1141.96 1308.3,1141.67 1310.11,1141.2 1311.86,1140.56 1313.52,1139.76 1315.08,1138.8 1316.55,1137.7 1317.9,1136.48 1319.13,1135.13 1320.22,1133.66 1321.18,1132.1 1321.98,1130.44 1322.62,1128.69 1323.09,1126.88 1323.38,1124.99 1323.48,1123.06 "/>
     <polygon id="_303081592" class="fil1" points="1584,1108.94 2719.88,2244.83 2459.36,2244.83 1323.48,1108.94 "/>
    </g>
    <path id="_308717704" class="fil1" d="M1546.01 491.154l0 481.698c0,7.82599 -6.4193,14.2465 -14.2465,14.2465l-296.625 0 0 57.0225 69.3461 0c10.4492,0 18.9957,8.54883 18.9957,18.9957l0 14.113 260.524 0 0 31.7162 -260.524 0 0 14.1154c0,10.448 -8.54764,18.9957 -18.9957,18.9957l-164.322 0c-10.448,0 -18.9957,-8.54764 -18.9957,-18.9957l0 -14.1154 -123.415 0c33.5563,47.7154 53.2701,105.872 53.2701,168.638 0,162.101 -131.408,293.51 -293.51,293.51 -162.101,0 -293.51,-131.41 -293.51,-293.51 0,-162.101 131.41,-293.509 293.51,-293.509 84.6402,0 160.899,35.8382 214.464,93.1548l149.191 0 0 -14.113c0,-10.448 8.54764,-18.9957 18.9957,-18.9957l63.2611 0 0 -57.0225 -296.623 0c-7.82599,0 -14.2465,-6.40985 -14.2465,-14.2465l0 -481.698c0,-7.83544 6.41103,-14.2465 14.2465,-14.2465l624.963 0c7.83544,0 14.2465,6.4193 14.2465,14.2465z"/>
   </g>
  </g>
  <path class="fil2" d="M1024 0c565.541,0 1024,458.459 1024,1024 0,565.541 -458.459,1024 -1024,1024 -565.541,0 -1024,-458.459 -1024,-1024 0,-565.541 458.459,-1024 1024,-1024z"/>
  <polygon class="fil3" points="1235.14,960.65 1235.14,1059.98 1203.42,1059.98 1203.42,960.65 "/>
  <path class="fil3" d="M854.555 1077.23l282.467 0 0 31.7162 -282.467 0 0 -31.7162zm448.014 0l281.431 0 0 31.7162 -281.431 0 0 -31.7162z"/>
  <path class="fil4" d="M1140.16 1044.12l164.322 0c10.448,0 18.9957,8.54883 18.9957,18.9957l0 59.9445c0,10.4469 -8.54764,18.9957 -18.9957,18.9957l-164.322 0c-10.4469,0 -18.9957,-8.54764 -18.9957,-18.9957l0 -59.9445c0,-10.448 8.54764,-18.9957 18.9957,-18.9957z"/>
  <path class="fil5" d="M906.797 476.907l624.963 0c7.83544,0 14.2465,6.42048 14.2465,14.2465l0 481.698c0,7.82599 -6.42048,14.2465 -14.2465,14.2465l-624.963 0c-7.82599,0 -14.2465,-6.40985 -14.2465,-14.2465l0 -481.698c0,-7.83544 6.41103,-14.2465 14.2465,-14.2465z"/>
  <path class="fil6" d="M925.678 531.584l587.201 0c6.88583,0 12.5197,5.64567 12.5197,12.5197l0 35.7532c0,6.87402 -5.64685,12.5197 -12.5197,12.5197l-587.201 0c-6.87402,0 -12.5197,-5.63386 -12.5197,-12.5197l0 -35.7532c0,-6.88701 5.63386,-12.5197 12.5197,-12.5197z"/>
  <circle class="fil7" cx="943.805" cy="562.966" r="11.3902"/>
  <circle class="fil7" cx="973.439" cy="562.966" r="11.3902"/>
  <circle class="fil7" cx="1003.07" cy="562.966" r="11.3902"/>
  <circle class="fil8" cx="1465.46" cy="562.966" r="11.3902"/>
  <circle class="fil8" cx="1495.1" cy="562.966" r="11.3902"/>
  <rect class="fil9" x="1029.32" y="546.778" width="379.919" height="30.3937"/>
  <rect class="fil10" x="1049.53" y="555.533" width="13.1235" height="13.1235"/>
  <rect class="fil10" x="1071.29" y="555.533" width="13.1235" height="13.1235"/>
  <rect class="fil10" x="1093.04" y="555.533" width="13.1235" height="13.1235"/>
  <rect class="fil10" x="1114.8" y="555.533" width="13.1235" height="13.1235"/>
  <rect class="fil10" x="1136.56" y="555.533" width="13.1235" height="13.1235"/>
  <rect class="fil10" x="1158.32" y="555.533" width="13.1235" height="13.1235"/>
  <rect class="fil10" x="1180.08" y="555.533" width="13.1235" height="13.1235"/>
  <rect class="fil10" x="1201.84" y="555.533" width="13.1235" height="13.1235"/>
  <rect class="fil10" x="1223.6" y="555.533" width="13.1235" height="13.1235"/>
  <rect class="fil10" x="1245.35" y="555.533" width="13.1235" height="13.1235"/>
  <rect class="fil10" x="1267.11" y="555.533" width="13.1235" height="13.1235"/>
  <rect class="fil10" x="1288.87" y="555.533" width="13.1235" height="13.1235"/>
  <rect class="fil10" x="1310.63" y="555.533" width="13.1235" height="13.1235"/>
  <rect class="fil10" x="1332.39" y="555.533" width="13.1235" height="13.1235"/>
  <rect class="fil10" x="1354.15" y="555.533" width="13.1235" height="13.1235"/>
  <rect class="fil10" x="1375.91" y="555.533" width="13.1235" height="13.1235"/>
  <path class="fil6" d="M925.678 607.565l587.201 0c6.88583,0 12.5197,5.64567 12.5197,12.5197l0 35.7532c0,6.87402 -5.64685,12.5197 -12.5197,12.5197l-587.201 0c-6.87402,0 -12.5197,-5.63268 -12.5197,-12.5197l0 -35.7532c0,-6.88701 5.63386,-12.5197 12.5197,-12.5197z"/>
  <circle class="fil7" cx="943.805" cy="638.947" r="11.3902"/>
  <circle class="fil7" cx="973.439" cy="638.947" r="11.3902"/>
  <circle class="fil7" cx="1003.07" cy="638.947" r="11.3902"/>
  <circle class="fil8" cx="1465.46" cy="638.947" r="11.3902"/>
  <circle class="fil8" cx="1495.1" cy="638.947" r="11.3902"/>
  <rect class="fil9" x="1029.32" y="622.76" width="379.919" height="30.3937"/>
  <rect class="fil10" x="1049.53" y="631.515" width="13.1235" height="13.1235"/>
  <rect class="fil10" x="1071.29" y="631.515" width="13.1235" height="13.1235"/>
  <rect class="fil10" x="1093.04" y="631.515" width="13.1235" height="13.1235"/>
  <rect class="fil10" x="1114.8" y="631.515" width="13.1235" height="13.1235"/>
  <rect class="fil10" x="1136.56" y="631.515" width="13.1235" height="13.1235"/>
  <rect class="fil10" x="1158.32" y="631.515" width="13.1235" height="13.1235"/>
  <rect class="fil10" x="1180.08" y="631.515" width="13.1235" height="13.1235"/>
  <rect class="fil10" x="1201.84" y="631.515" width="13.1235" height="13.1235"/>
  <rect class="fil10" x="1223.6" y="631.515" width="13.1235" height="13.1235"/>
  <rect class="fil10" x="1245.35" y="631.515" width="13.1235" height="13.1235"/>
  <rect class="fil10" x="1267.11" y="631.515" width="13.1235" height="13.1235"/>
  <rect class="fil10" x="1288.87" y="631.515" width="13.1235" height="13.1235"/>
  <rect class="fil10" x="1310.63" y="631.515" width="13.1235" height="13.1235"/>
  <rect class="fil10" x="1332.39" y="631.515" width="13.1235" height="13.1235"/>
  <rect class="fil10" x="1354.15" y="631.515" width="13.1235" height="13.1235"/>
  <rect class="fil10" x="1375.91" y="631.515" width="13.1235" height="13.1235"/>
  <path class="fil6" d="M925.678 683.547l587.201 0c6.88583,0 12.5197,5.64567 12.5197,12.5197l0 35.7544c0,6.87284 -5.64685,12.5185 -12.5197,12.5185l-587.201 0c-6.87402,0 -12.5197,-5.63268 -12.5197,-12.5185l0 -35.7544c0,-6.88583 5.63386,-12.5197 12.5197,-12.5197z"/>
  <circle class="fil7" cx="943.805" cy="714.929" r="11.3902"/>
  <circle class="fil7" cx="973.439" cy="714.929" r="11.3902"/>
  <circle class="fil7" cx="1003.07" cy="714.929" r="11.3902"/>
  <circle class="fil8" cx="1465.46" cy="714.929" r="11.3902"/>
  <circle class="fil8" cx="1495.1" cy="714.929" r="11.3902"/>
  <rect class="fil9" x="1029.32" y="698.742" width="379.919" height="30.3937"/>
  <rect class="fil10" x="1049.53" y="707.496" width="13.1235" height="13.1235"/>
  <rect class="fil10" x="1071.29" y="707.496" width="13.1235" height="13.1235"/>
  <rect class="fil10" x="1093.04" y="707.496" width="13.1235" height="13.1235"/>
  <rect class="fil10" x="1114.8" y="707.496" width="13.1235" height="13.1235"/>
  <rect class="fil10" x="1136.56" y="707.496" width="13.1235" height="13.1235"/>
  <rect class="fil10" x="1158.32" y="707.496" width="13.1235" height="13.1235"/>
  <rect class="fil10" x="1180.08" y="707.496" width="13.1235" height="13.1235"/>
  <rect class="fil10" x="1201.84" y="707.496" width="13.1235" height="13.1235"/>
  <rect class="fil10" x="1223.6" y="707.496" width="13.1235" height="13.1235"/>
  <rect class="fil10" x="1245.35" y="707.496" width="13.1235" height="13.1235"/>
  <rect class="fil10" x="1267.11" y="707.496" width="13.1235" height="13.1235"/>
  <rect class="fil10" x="1288.87" y="707.496" width="13.1235" height="13.1235"/>
  <rect class="fil10" x="1310.63" y="707.496" width="13.1235" height="13.1235"/>
  <rect class="fil10" x="1332.39" y="707.496" width="13.1235" height="13.1235"/>
  <rect class="fil10" x="1354.15" y="707.496" width="13.1235" height="13.1235"/>
  <rect class="fil10" x="1375.91" y="707.496" width="13.1235" height="13.1235"/>
  <path class="fil6" d="M925.678 759.529l587.201 0c6.88583,0 12.5197,5.64567 12.5197,12.5197l0 35.7544c0,6.87284 -5.64685,12.5185 -12.5197,12.5185l-587.201 0c-6.87402,0 -12.5197,-5.63268 -12.5197,-12.5185l0 -35.7544c0,-6.88583 5.63386,-12.5197 12.5197,-12.5197z"/>
  <circle class="fil7" cx="943.805" cy="790.911" r="11.3902"/>
  <circle class="fil7" cx="973.439" cy="790.911" r="11.3902"/>
  <circle class="fil7" cx="1003.07" cy="790.911" r="11.3902"/>
  <circle class="fil8" cx="1465.46" cy="790.911" r="11.3902"/>
  <circle class="fil8" cx="1495.1" cy="790.911" r="11.3902"/>
  <rect class="fil9" x="1029.32" y="774.723" width="379.919" height="30.3937"/>
  <rect class="fil10" x="1049.53" y="783.478" width="13.1235" height="13.1235"/>
  <rect class="fil10" x="1071.29" y="783.478" width="13.1235" height="13.1235"/>
  <rect class="fil10" x="1093.04" y="783.478" width="13.1235" height="13.1235"/>
  <rect class="fil10" x="1114.8" y="783.478" width="13.1235" height="13.1235"/>
  <rect class="fil10" x="1136.56" y="783.478" width="13.1235" height="13.1235"/>
  <rect class="fil10" x="1158.32" y="783.478" width="13.1235" height="13.1235"/>
  <rect class="fil10" x="1180.08" y="783.478" width="13.1235" height="13.1235"/>
  <rect class="fil10" x="1201.84" y="783.478" width="13.1235" height="13.1235"/>
  <rect class="fil10" x="1223.6" y="783.478" width="13.1235" height="13.1235"/>
  <rect class="fil10" x="1245.35" y="783.478" width="13.1235" height="13.1235"/>
  <rect class="fil10" x="1267.11" y="783.478" width="13.1235" height="13.1235"/>
  <rect class="fil10" x="1288.87" y="783.478" width="13.1235" height="13.1235"/>
  <rect class="fil10" x="1310.63" y="783.478" width="13.1235" height="13.1235"/>
  <rect class="fil10" x="1332.39" y="783.478" width="13.1235" height="13.1235"/>
  <rect class="fil10" x="1354.15" y="783.478" width="13.1235" height="13.1235"/>
  <rect class="fil10" x="1375.91" y="783.478" width="13.1235" height="13.1235"/>
  <path class="fil6" d="M925.678 835.51l587.201 0c6.88583,0 12.5197,5.64567 12.5197,12.5197l0 35.7544c0,6.87284 -5.64685,12.5197 -12.5197,12.5197l-587.201 0c-6.87402,0 -12.5197,-5.63386 -12.5197,-12.5197l0 -35.7544c0,-6.88583 5.63386,-12.5197 12.5197,-12.5197z"/>
  <circle class="fil7" cx="943.805" cy="866.892" r="11.3902"/>
  <circle class="fil7" cx="973.439" cy="866.892" r="11.3902"/>
  <circle class="fil7" cx="1003.07" cy="866.892" r="11.3902"/>
  <circle class="fil8" cx="1465.46" cy="866.892" r="11.3902"/>
  <circle class="fil8" cx="1495.1" cy="866.892" r="11.3902"/>
  <rect class="fil9" x="1029.32" y="850.705" width="379.919" height="30.3937"/>
  <rect class="fil10" x="1049.53" y="859.46" width="13.1235" height="13.1235"/>
  <rect class="fil10" x="1071.29" y="859.46" width="13.1235" height="13.1235"/>
  <rect class="fil10" x="1093.04" y="859.46" width="13.1235" height="13.1235"/>
  <rect class="fil10" x="1114.8" y="859.46" width="13.1235" height="13.1235"/>
  <rect class="fil10" x="1136.56" y="859.46" width="13.1235" height="13.1235"/>
  <rect class="fil10" x="1158.32" y="859.46" width="13.1235" height="13.1235"/>
  <rect class="fil10" x="1180.08" y="859.46" width="13.1235" height="13.1235"/>
  <rect class="fil10" x="1201.84" y="859.46" width="13.1235" height="13.1235"/>
  <rect class="fil10" x="1223.6" y="859.46" width="13.1235" height="13.1235"/>
  <rect class="fil10" x="1245.35" y="859.46" width="13.1235" height="13.1235"/>
  <rect class="fil10" x="1267.11" y="859.46" width="13.1235" height="13.1235"/>
  <rect class="fil10" x="1288.87" y="859.46" width="13.1235" height="13.1235"/>
  <rect class="fil10" x="1310.63" y="859.46" width="13.1235" height="13.1235"/>
  <rect class="fil10" x="1332.39" y="859.46" width="13.1235" height="13.1235"/>
  <rect class="fil10" x="1354.15" y="859.46" width="13.1235" height="13.1235"/>
  <rect class="fil10" x="1375.91" y="859.46" width="13.1235" height="13.1235"/>
  <path class="fil6" d="M925.678 911.492l587.201 0c6.88583,0 12.5197,5.64567 12.5197,12.5197l0 35.7544c0,6.87402 -5.64685,12.5197 -12.5197,12.5197l-587.201 0c-6.87402,0 -12.5197,-5.63386 -12.5197,-12.5197l0 -35.7544c0,-6.88583 5.63386,-12.5197 12.5197,-12.5197z"/>
  <circle class="fil7" cx="943.805" cy="942.874" r="11.3902"/>
  <circle class="fil7" cx="973.439" cy="942.874" r="11.3902"/>
  <circle class="fil7" cx="1003.07" cy="942.874" r="11.3902"/>
  <circle class="fil8" cx="1465.46" cy="942.874" r="11.3902"/>
  <circle class="fil8" cx="1495.1" cy="942.874" r="11.3902"/>
  <rect class="fil9" x="1029.32" y="926.687" width="379.919" height="30.3937"/>
  <rect class="fil10" x="1049.53" y="935.441" width="13.1235" height="13.1235"/>
  <rect class="fil10" x="1071.29" y="935.441" width="13.1235" height="13.1235"/>
  <rect class="fil10" x="1093.04" y="935.441" width="13.1235" height="13.1235"/>
  <rect class="fil10" x="1114.8" y="935.441" width="13.1235" height="13.1235"/>
  <rect class="fil10" x="1136.56" y="935.441" width="13.1235" height="13.1235"/>
  <rect class="fil10" x="1158.32" y="935.441" width="13.1235" height="13.1235"/>
  <rect class="fil10" x="1180.08" y="935.441" width="13.1235" height="13.1235"/>
  <rect class="fil10" x="1201.84" y="935.441" width="13.1235" height="13.1235"/>
  <rect class="fil10" x="1223.6" y="935.441" width="13.1235" height="13.1235"/>
  <rect class="fil10" x="1245.35" y="935.441" width="13.1235" height="13.1235"/>
  <rect class="fil10" x="1267.11" y="935.441" width="13.1235" height="13.1235"/>
  <rect class="fil10" x="1288.87" y="935.441" width="13.1235" height="13.1235"/>
  <rect class="fil10" x="1310.63" y="935.441" width="13.1235" height="13.1235"/>
  <rect class="fil10" x="1332.39" y="935.441" width="13.1235" height="13.1235"/>
  <rect class="fil10" x="1354.15" y="935.441" width="13.1235" height="13.1235"/>
  <rect class="fil10" x="1375.91" y="935.441" width="13.1235" height="13.1235"/>
  <circle class="fil11" cx="1499.66" cy="504.741" r="13.5413"/>
  <circle class="fil9" cx="1499.66" cy="504.741" r="8.60763"/>
  <circle class="fil11" cx="938.896" cy="504.741" r="13.5413"/>
  <circle class="fil9" cx="938.896" cy="504.741" r="8.60763"/>
  <ellipse class="fil12" cx="757.509" cy="1277.58" rx="293.51" ry="293.51"/>
  <path class="fil13" d="M617.049 1019.81c35.4355,-19.35 75.2977,-31.6099 117.683,-34.8626 6.64607,-0.464174 13.3512,-0.702756 20.1142,-0.702756 43.4516,0 84.4371,10.0181 121.254,27.3449l-10.2614 1.52126 -27.8918 -4.16693 -19.8236 13.1835 -13.9819 15.4961 -50.7922 4.68898 -20.9811 -3.46772 -14.315 22.5673 -41.8654 2.40118 -26.2855 -7.60985 -23.2855 12.8185 -50.6126 6.99922 -40.5355 11.7862 -0.090945 0c22.6347,-27.4725 50.3398,-50.6091 81.6709,-67.9973zm149.851 -7.24489l29.1107 -16.0169 18.6685 10.8095 -27.0744 20.524 -25.7599 2.65158 -11.5973 -7.61575 16.6524 -10.3524zm-86.1142 2.3126l12.8197 5.38819 16.8378 -5.38819 9.10749 15.926 -38.765 10.1728 -18.6685 -10.9689c0,0 18.2138,-11.6882 18.6685,-15.1299z"/>
  <path class="fil14" d="M982.891 1091.7c42.5634,51.6225 68.1284,117.783 68.1284,189.914 0,47.0221 -10.878,91.4977 -30.2327,131.073 -22.6772,25.7256 -50.8689,46.8225 -83.1957,61.2638l1.43268 -16.6618c42.0426,-41.0422 28.617,-57.3886 67.2721,-84.9568l17.3114 -56.3304 -46.1398 -16.7658c-16.1539,-12.6933 -19.1126,-20.9421 -39.0626,-19.5957 -8.9067,-0.700394 -17.8146,-1.40669 -26.7213,-2.10827 -7.53426,0.217323 -15.0638,0.438189 -22.598,0.655512 -6.06142,2.97638 -12.1287,5.94804 -18.189,8.92442 -12.7784,-9.86457 -10.6382,-10.6087 -26.6079,-12.2197 -0.742914,-5.94567 -1.49055,-11.8902 -2.23347,-17.8358 -4.7067,1.03228 -9.4193,2.07047 -14.126,3.10158 -2.12953,3.60355 -4.25906,7.20001 -6.38859,10.8024 -9.88938,-22.4162 -11.2736,-16.5284 8.70946,-30.9425 6.89528,1.74567 13.7894,3.49134 20.6835,5.23701 3.42284,-0.636615 6.84686,-1.27323 10.2697,-1.90984 2.19449,-38.5807 30.6508,-61.1741 59.1178,-82.9028 7.82599,-0.427559 15.6461,-0.849213 23.4721,-1.27559 -0.00590552,-3.87638 -0.0106299,-7.74686 -0.0153543,-11.6232 -23.8418,-16.6937 -30.9626,-19.9228 -48.587,-43.1705 -39.6343,7.37127 -48.3579,-18.9284 -47.8796,25.6973 -8.81457,-0.0590552 -17.6244,-0.113386 -26.439,-0.172441 -1.62165,-5.11181 -3.24213,-10.2177 -4.8626,-15.3295 25.1551,-10.7906 18.7725,-8.34095 20.0256,-37.2886 6.9626,1.44803 13.9311,2.90079 20.8937,4.35 0.564567,4.0004 1.12913,8.00079 1.69488,12.0024 9.36733,2.00669 16.865,3.50551 26.3953,4.47048 3.64725,-2.85591 7.28859,-5.71772 10.9358,-8.57481 -9.72048,-13.2484 -21.9213,-21.3248 -39.2386,-28.115 -0.464174,-3.45591 -0.934253,-6.91064 -1.39725,-10.3665 36.6485,0.335433 44.1473,8.78387 61.4115,41.2382 11.811,7.24961 23.628,14.4992 35.4402,21.7488l8.2878 1.0063 7.50237 -19.1941 14.9303 -4.14567z"/>
  <path class="fil14" d="M729.898 1569.46c-149.438,-15.7288 -265.899,-142.123 -265.899,-295.729 0,-22.6276 2.54055,-44.6599 7.32875,-65.8418 4.30866,-10.0016 9.21969,-19.6843 14.6823,-29.0008l18.6898 -4.28622 -18.7713 14.791 14.7319 9.71103 29.2051 0 43.4398 -7.76812c9.11812,14.8099 18.2433,29.6233 27.3614,44.4319 0,55.376 4.06418,47.1024 37.2862,92.1568 2.10709,0 4.20945,0 6.31772,0 0,-5.95985 0,-11.9138 0,-17.8736 24.2386,16.7811 85.2166,37.1327 94.5993,64.6477 -5.80158,12.0839 -11.5961,24.1677 -17.3988,36.2528 6.313,11.7012 12.6189,23.4036 18.9307,35.1059 0,0 11.9728,40.4563 11.9728,42.0709 0,1.53307 -11.9728,48.3886 -11.9728,48.3886l2.75433 31.5662c-4.40315,0.525591 -8.81694,1.00039 -13.2579,1.37717z"/>
  <path class="fil15" d="M984.081 1090.99c41.8193,50.7201 66.9378,115.723 66.9378,186.593 0,46.2 -10.6866,89.8985 -29.7036,128.78 -22.2803,25.2768 -49.9796,46.0052 -81.7406,60.1926l1.40669 -16.3701c41.3079,-40.324 28.1162,-56.3847 66.0957,-83.4709l17.0091 -55.3453 -45.3331 -16.4717c-15.8717,-12.4725 -18.7784,-20.576 -38.38,-19.2532 -8.75079,-0.688583 -17.5028,-1.38307 -26.2536,-2.07166 -7.40316,0.212599 -14.8004,0.429922 -22.2036,0.643701 -5.95512,2.92441 -11.9162,5.8441 -17.8713,8.76851 -12.5539,-9.69213 -10.4516,-10.4232 -26.1414,-12.0059 -0.729922,-5.84174 -1.46457,-11.6823 -2.19449,-17.524 -4.6252,1.01339 -9.25394,2.03386 -13.8791,3.04725 -2.09173,3.53977 -4.18465,7.07481 -6.27638,10.6134 -9.71576,-22.0252 -11.0776,-16.239 8.55709,-30.4016 6.77363,1.71496 13.5473,3.42992 20.3209,5.14607 3.36378,-0.625985 6.72756,-1.25197 10.0913,-1.87677 2.15551,-37.9063 30.1146,-60.104 58.0831,-81.4536 7.68898,-0.420473 15.3732,-0.833859 23.0622,-1.25315 -0.00590552,-3.80788 -0.0106299,-7.61221 -0.0165354,-11.4201 -23.4248,-16.402 -30.4205,-19.5744 -47.7367,-42.4146 -38.941,7.24134 -47.5122,-18.5977 -47.0422,25.2473 -8.66103,-0.0578741 -17.3162,-0.111024 -25.9772,-0.170079 -1.59213,-5.02205 -3.18425,-10.0394 -4.77756,-15.0614 24.7158,-10.6016 18.4453,-8.19449 19.676,-36.6355 6.84095,1.42205 13.6866,2.85 20.5276,4.27323 0.5563,3.93071 1.11024,7.86142 1.66654,11.7921 9.20316,1.97244 16.5697,3.44528 25.9335,4.3937 3.58347,-2.80748 7.16103,-5.61851 10.7445,-8.42599 -9.5504,-13.0158 -21.5374,-20.9516 -38.5536,-27.6236 -0.454725,-3.39449 -0.916536,-6.78898 -1.37244,-10.1847 36.0083,0.329528 43.3748,8.63032 60.3378,40.5166 11.6055,7.12323 23.2158,14.2465 34.8201,21.3697l8.14371 0.988583 7.37127 -18.8587 14.6681 -4.07363z"/>
  <path class="fil15" d="M726.432 1569.46c-147.49,-15.5232 -262.433,-140.27 -262.433,-291.873 0,-22.3323 2.50748,-44.0776 7.23308,-64.9831 4.25315,-9.87166 9.1004,-19.428 14.491,-28.6229l18.4465 -4.22953 -18.5268 14.5973 14.5394 9.58465 28.8248 0 42.8729 -7.66654c9.00001,14.6162 18.0059,29.237 27.0059,43.852 0,54.6544 4.00985,46.4882 36.7996,90.9556 2.07992,0 4.15394,0 6.23504,0 0,-5.88189 0,-11.7591 0,-17.641 23.9221,16.5626 84.1052,36.6485 93.3662,63.8044 -5.72599,11.9268 -11.4461,23.8524 -17.1721,35.7803 6.23032,11.5488 12.4547,23.0977 18.6839,34.6488 0,0 11.8169,39.9284 11.8169,41.5217 0,1.51299 -11.8169,47.7579 -11.8169,47.7579l2.71772 31.154c-4.34528,0.519685 -8.70237,0.987402 -13.0843,1.35945z"/>
 </g>
</svg>
